# xmcd
# 
# Track frame offsets:
#     150
#     18861
#     35028
#     51113
#     66292
#     82951
#     101157
#     117413
#     127923
#     143405
#     160484
#     172891
#     189230
#     202650
# 
# Disc length: 2978
# 
# Revision: 6
# Processed by: cddbd v1.5.2PL0 Copyright (c) Steve Scherf et al.
# Submitted via: fre:ac v1.0.17
# 
DISCID=b00ba00e
DTITLE=Dada [ante portas] - Bound For Nowhere
DYEAR=2002
DGENRE=Alt Rock
TTITLE0=Don't Let Me Down
TTITLE1=Someone To Love
TTITLE2=Story Of Sweet Mary
TTITLE3=Coming Home
TTITLE4=Johnny Rain
TTITLE5=Waiting For The Sun
TTITLE6=Want You So Badly
TTITLE7=Lil' Kitty
TTITLE8=Where I Belong
TTITLE9=Sleepwalkers
TTITLE10=I'm A Lover
TTITLE11=Popstar
TTITLE12=Neck
TTITLE13=What Remains
EXTD=YEAR: 2002
EXTT0=
EXTT1=
EXTT2=
EXTT3=
EXTT4=
EXTT5=
EXTT6=
EXTT7=
EXTT8=
EXTT9=
EXTT10=
EXTT11=
EXTT12=
EXTT13=
PLAYORDER=
